<?xml version="1.0" encoding="UTF-8"?>
<svg version="1.1" xmlns="http://www.w3.org/2000/svg" width="500" height="100">
<path d="M0 0 C165 0 330 0 500 0 C500 33 500 66 500 100 C335 100 170 100 0 100 C0 67 0 34 0 0 Z " fill="#FEFEFE" transform="translate(0,0)"/>
<path d="M0 0 C1.39192618 -0.00706533 2.78384469 -0.01581293 4.17575073 -0.02610779 C7.9401415 -0.04853726 11.70411058 -0.04567826 15.46854258 -0.03678632 C18.61487694 -0.03166483 21.76113286 -0.03897797 24.90745914 -0.04625839 C32.32900132 -0.06323521 39.75033775 -0.05971204 47.171875 -0.04296875 C54.82416172 -0.02602812 62.4758788 -0.04191319 70.12810338 -0.07419163 C76.70580579 -0.1008846 83.28333083 -0.10816501 89.86108196 -0.09967655 C93.78651579 -0.09474903 97.7116065 -0.09695385 101.63699722 -0.11746407 C105.32596046 -0.13581844 109.0141029 -0.12986688 112.703022 -0.10526466 C114.6999107 -0.09787065 116.69684307 -0.11511158 118.69366455 -0.13308716 C128.45155714 -0.02946228 128.45155714 -0.02946228 131.59222412 2.85798645 C133.24951172 5.53344727 133.24951172 5.53344727 133.2578125 8.97192383 C132.24329626 12.55540155 131.00320021 15.31429037 129.11669922 18.51782227 C128.47474609 19.61868164 127.83279297 20.71954102 127.17138672 21.85375977 C126.49591797 22.98555664 125.82044922 24.11735352 125.12451172 25.28344727 C124.47224609 26.39977539 123.81998047 27.51610352 123.14794922 28.66625977 C120.00299624 34.02016782 116.79260803 39.33382111 113.51513672 44.60766602 C112.98436523 45.46191162 112.45359375 46.31615723 111.90673828 47.19628906 C108.09931906 52.5658271 103.48349319 56.41623585 97.24951172 58.53344727 C94.4277792 58.79350948 94.4277792 58.79350948 91.2842865 58.80760193 C90.08838394 58.81757706 88.89248138 58.82755219 87.66033936 58.83782959 C86.35679504 58.83849426 85.05325073 58.83915894 83.71020508 58.83984375 C82.31695615 58.84746908 80.92371142 58.85589722 79.5304718 58.86506653 C75.75375207 58.88697407 71.97711326 58.89580466 68.20033717 58.90089297 C65.84055992 58.90453915 63.4808038 58.91078039 61.12103462 58.91789436 C52.88837885 58.94237002 44.65578599 58.95543793 36.4230957 58.95898438 C28.74814636 58.96262441 21.07359573 58.99255768 13.39876837 59.03438896 C6.80756283 59.06905532 0.21648977 59.08453213 -6.37480634 59.08523041 C-10.3108957 59.08602409 -14.24657815 59.09480495 -18.18257332 59.12322807 C-21.8821208 59.14934867 -25.58092211 59.15164854 -29.28051949 59.13557243 C-31.28600867 59.13288561 -33.29148295 59.15497933 -35.29684448 59.17776489 C-37.08646858 59.16311943 -37.08646858 59.16311943 -38.9122467 59.1481781 C-39.94922227 59.15018943 -40.98619783 59.15220076 -42.0545969 59.15427303 C-45.73664901 58.30634836 -46.78357612 56.67596069 -48.75048828 53.53344727 C-49.00048828 50.72094727 -49.00048828 50.72094727 -48.75048828 48.53344727 C-50.29736328 48.68813477 -50.29736328 48.68813477 -51.87548828 48.84594727 C-56.76881411 48.45132421 -58.39868636 47.04114695 -61.75048828 43.53344727 C-64.03460809 39.58814941 -64.15258459 36.03692588 -63.75048828 31.53344727 C-61.67709648 26.84103424 -58.3240972 23.82025173 -53.75048828 21.53344727 C-48.56074187 21.134236 -45.1214013 21.61950526 -40.75048828 24.53344727 C-39.87548828 26.72094727 -39.87548828 26.72094727 -39.75048828 28.53344727 C-38.43048828 28.53344727 -37.11048828 28.53344727 -35.75048828 28.53344727 C-35.75048828 35.13344727 -35.75048828 41.73344727 -35.75048828 48.53344727 C-33.11048828 48.53344727 -30.47048828 48.53344727 -27.75048828 48.53344727 C-27.75048828 41.93344727 -27.75048828 35.33344727 -27.75048828 28.53344727 C-25.77048828 28.53344727 -23.79048828 28.53344727 -21.75048828 28.53344727 C-21.72470703 29.56985352 -21.69892578 30.60625977 -21.67236328 31.67407227 C-21.61606877 33.04390528 -21.55872173 34.41369531 -21.50048828 35.78344727 C-21.48630859 36.46536133 -21.47212891 37.14727539 -21.45751953 37.84985352 C-21.29363961 41.22577995 -20.9661449 43.23919995 -18.94970703 45.99047852 C-15.69842779 48.27157141 -12.53424664 48.18530267 -8.75048828 47.53344727 C-5.82502388 46.18251846 -5.82502388 46.18251846 -3.75048828 44.53344727 C-3.75048828 45.85344727 -3.75048828 47.17344727 -3.75048828 48.53344727 C-1.11048828 48.53344727 1.52951172 48.53344727 4.24951172 48.53344727 C4.24951172 39.62344727 4.24951172 30.71344727 4.24951172 21.53344727 C1.60951172 21.53344727 -1.03048828 21.53344727 -3.75048828 21.53344727 C-3.69828125 23.19633789 -3.69828125 23.19633789 -3.64501953 24.89282227 C-3.61687479 26.35634875 -3.58957536 27.81989166 -3.56298828 29.28344727 C-3.53785156 30.01305664 -3.51271484 30.74266602 -3.48681641 31.49438477 C-3.44213002 34.77138636 -3.52180752 37.11243674 -5.10205078 40.02172852 C-6.75048828 41.53344727 -6.75048828 41.53344727 -9.31298828 41.97094727 C-10.11736328 41.82657227 -10.92173828 41.68219727 -11.75048828 41.53344727 C-13.78169535 38.48663666 -13.99708703 37.93226403 -13.94580078 34.52172852 C-13.93935547 33.7644043 -13.93291016 33.00708008 -13.92626953 32.22680664 C-13.90951172 31.44112305 -13.89275391 30.65543945 -13.87548828 29.84594727 C-13.86646484 29.04866211 -13.85744141 28.25137695 -13.84814453 27.42993164 C-13.82460413 25.46430826 -13.78873375 23.49883952 -13.75048828 21.53344727 C-16.39048828 21.53344727 -19.03048828 21.53344727 -21.75048828 21.53344727 C-21.75048828 22.19344727 -21.75048828 22.85344727 -21.75048828 23.53344727 C-23.73048828 23.53344727 -25.71048828 23.53344727 -27.75048828 23.53344727 C-27.42048828 21.88344727 -27.09048828 20.23344727 -26.75048828 18.53344727 C-24.77048828 18.53344727 -22.79048828 18.53344727 -20.75048828 18.53344727 C-20.42048828 16.88344727 -20.09048828 15.23344727 -19.75048828 13.53344727 C-22.06048828 12.87344727 -24.37048828 12.21344727 -26.75048828 11.53344727 C-25.91098562 10.43871119 -25.05282416 9.35828246 -24.18798828 8.28344727 C-23.47449219 7.37852539 -23.47449219 7.37852539 -22.74658203 6.45532227 C-15.79016594 -0.24244039 -9.28284892 -0.04678681 0 0 Z " fill="#030303" transform="translate(264.75048828125,20.466552734375)"/>
<path d="M0 0 C0.33 0.33 0.66 0.66 1 1 C1.33 0.34 1.66 -0.32 2 -1 C4.97 -1 7.94 -1 11 -1 C11.11647041 3.54144994 11.18734502 8.08251394 11.25 12.625 C11.28351563 13.91019531 11.31703125 15.19539063 11.3515625 16.51953125 C11.46209612 27.18602516 11.46209612 27.18602516 9.18359375 30.78125 C5.21199115 34.81679611 0.98823668 36.15072781 -4.5625 36.375 C-8.62905308 36.24966104 -11.50619749 35.15003231 -15 33 C-14.67 31.35 -14.34 29.7 -14 28 C-13.01 27.67 -12.02 27.34 -11 27 C-10.34 27.33 -9.68 27.66 -9 28 C-7.08499697 28.15898854 -7.08499697 28.15898854 -5 28.125 C-4.29875 28.12757812 -3.5975 28.13015625 -2.875 28.1328125 C-0.90846225 28.11377236 -0.90846225 28.11377236 1 27 C1 25.68 1 24.36 1 23 C0.34 23.33 -0.32 23.66 -1 24 C-5.50728651 24.54016597 -8.94994123 24.60322525 -12.9375 22.3125 C-16.1054006 18.76061144 -16.89054762 16.22586669 -17.3125 11.5 C-16.86843694 6.52649377 -15.13851101 4.27245348 -11.875 0.625 C-7.81251884 -1.671185 -4.44613284 -1.07478831 0 0 Z " fill="#0D0D0D" transform="translate(114,43)"/>
<path d="M0 0 C2.97 0 5.94 0 9 0 C9 0.99 9 1.98 9 3 C9.70125 2.505 10.4025 2.01 11.125 1.5 C14.47730606 -0.24902925 16.26724559 -0.4665943 20 0 C24.63235294 2.26470588 24.63235294 2.26470588 26 5 C26.804375 4.154375 27.60875 3.30875 28.4375 2.4375 C31.21593037 0.12104143 33.01831848 -0.36941974 36.625 -0.125 C39.6700437 0.20621528 40.88757682 0.90566567 43.2578125 2.89453125 C45.8352646 7.48886852 45.43051793 11.64343853 45.25 16.8125 C45.23195312 17.79154297 45.21390625 18.77058594 45.1953125 19.77929688 C45.14832887 22.18720771 45.08265694 24.59309335 45 27 C42.36 27 39.72 27 37 27 C36.93941406 25.78441406 36.87882812 24.56882812 36.81640625 23.31640625 C36.73201668 21.73175772 36.6473679 20.14712298 36.5625 18.5625 C36.52318359 17.76005859 36.48386719 16.95761719 36.44335938 16.13085938 C36.5945704 12.24760439 36.5945704 12.24760439 35 9 C32 8.83333333 32 8.83333333 29 9 C26.88074396 11.11925604 27.58168983 15.6196093 27.4375 18.5625 C27.39431641 19.36880859 27.35113281 20.17511719 27.30664062 21.00585938 C27.20024738 23.00368805 27.09959112 25.0018207 27 27 C24.03 27 21.06 27 18 27 C17.67 21.06 17.34 15.12 17 9 C15.02 9 13.04 9 11 9 C8.88074396 11.11925604 9.58168983 15.6196093 9.4375 18.5625 C9.39431641 19.36880859 9.35113281 20.17511719 9.30664062 21.00585938 C9.20024738 23.00368805 9.09959112 25.0018207 9 27 C6.03 27 3.06 27 0 27 C0 18.09 0 9.18 0 0 Z " fill="#0A0A0A" transform="translate(155,42)"/>
<path d="M0 0 C3.2277235 2.12736321 4.89407493 3.38617679 6.75 6.8125 C7.40725638 11.71607566 7.36984665 16.1595756 5.625 20.8125 C1.73211166 24.96491423 -2.13105668 26.03963168 -7.6875 26.375 C-12.78844701 26.249738 -15.38589771 24.92724026 -19.0078125 21.41796875 C-22.209843 17.27949537 -21.81368558 11.77452094 -21.25 6.8125 C-16.73384088 -1.3513261 -8.24447128 -3.01240297 0 0 Z " fill="#F8F8F8" transform="translate(327.25,43.1875)"/>
<path d="M0 0 C2.45699423 2.07308888 3.90011512 3.68961785 4.22705078 6.95581055 C4.21657715 7.81988525 4.20610352 8.68395996 4.1953125 9.57421875 C4.18886719 10.51201172 4.18242187 11.44980469 4.17578125 12.41601562 C4.15902344 13.39248047 4.14226562 14.36894531 4.125 15.375 C4.11597656 16.36306641 4.10695312 17.35113281 4.09765625 18.36914062 C4.0740843 20.80883765 4.04118022 23.24804697 4 25.6875 C0 25.6875 -4 25.6875 -8 25.6875 C-9.04994141 25.75710937 -9.04994141 25.75710937 -10.12109375 25.828125 C-13.86703292 26.00499903 -16.27240925 26.11340678 -19.5625 24.1875 C-21.60447484 20.63623941 -21.90026417 17.68139925 -21 13.6875 C-19.1875 11.1875 -19.1875 11.1875 -16 9.6875 C-12.30721219 9.37631002 -8.69554726 9.45450578 -5 9.6875 C-5.33 8.6975 -5.66 7.7075 -6 6.6875 C-9.96 6.6875 -13.92 6.6875 -18 6.6875 C-18.66 5.0375 -19.32 3.3875 -20 1.6875 C-13.52042505 -1.6931478 -6.90844742 -3.02244574 0 0 Z " fill="#0B0B0B" transform="translate(148,43.3125)"/>
<path d="M0 0 C2.97 0 5.94 0 9 0 C9.33 0.99 9.66 1.98 10 3 C10.515625 2.505 11.03125 2.01 11.5625 1.5 C14.97904264 -0.60248778 17.04648052 -0.54531303 21 0 C25.22607548 2.40680152 25.22607548 2.40680152 27 5 C27.73822806 8.79606609 27.56706793 12.46375412 27.375 16.3125 C27.34792969 17.33923828 27.32085937 18.36597656 27.29296875 19.42382812 C27.22243254 21.95137576 27.12393429 24.47460043 27 27 C24.36 27 21.72 27 19 27 C18.93941406 25.78441406 18.87882812 24.56882812 18.81640625 23.31640625 C18.73201668 21.73175772 18.6473679 20.14712298 18.5625 18.5625 C18.52318359 17.76005859 18.48386719 16.95761719 18.44335938 16.13085938 C18.5945704 12.24760439 18.5945704 12.24760439 17 9 C15.00041636 8.95919217 12.99954746 8.95745644 11 9 C9.414131 12.171738 9.62133555 15.63513822 9.4375 19.125 C9.39431641 19.87910156 9.35113281 20.63320313 9.30664062 21.41015625 C9.2005168 23.27321888 9.09974999 25.13658524 9 27 C6.03 27 3.06 27 0 27 C0 18.09 0 9.18 0 0 Z " fill="#F3F3F3" transform="translate(336,42)"/>
<path d="M0 0 C1.67440459 0.70358819 3.30911425 1.50026025 4.93359375 2.3125 C4.27359375 3.9625 3.61359375 5.6125 2.93359375 7.3125 C-0.69640625 6.6525 -4.32640625 5.9925 -8.06640625 5.3125 C-7.73640625 6.3025 -7.40640625 7.2925 -7.06640625 8.3125 C-4.80852734 9.48632124 -4.80852734 9.48632124 -2.12890625 10.375 C2.74076864 12.11967489 2.74076864 12.11967489 4.93359375 14.3125 C5.50192934 21.47352842 5.50192934 21.47352842 3.62109375 24.25 C-1.09574079 27.21985878 -6.70119035 26.78244592 -12.06640625 26.3125 C-15.25390625 24.8125 -15.25390625 24.8125 -17.06640625 23.3125 C-16.40640625 21.3325 -15.74640625 19.3525 -15.06640625 17.3125 C-14.57140625 17.621875 -14.07640625 17.93125 -13.56640625 18.25 C-10.08653844 19.72894382 -6.82612116 19.93652851 -3.06640625 20.3125 C-3.06640625 19.3225 -3.06640625 18.3325 -3.06640625 17.3125 C-4.28328125 17.065 -5.50015625 16.8175 -6.75390625 16.5625 C-10.68052734 15.55120327 -13.34503306 14.45908775 -16.06640625 11.3125 C-16.75390625 7.875 -16.75390625 7.875 -16.06640625 4.3125 C-11.52436592 -1.02439739 -6.70626052 -2.23119443 0 0 Z " fill="#F4F4F4" transform="translate(288.06640625,42.6875)"/>
<path d="M0 0 C2.97 0 5.94 0 9 0 C9 8.91 9 17.82 9 27 C6.03 27 3.06 27 0 27 C0 18.09 0 9.18 0 0 Z " fill="#EBEBEB" transform="translate(295,42)"/>
<path d="M0 0 C3 0.4375 3 0.4375 4.875 1.5 C6.66830867 4.58847604 6.42841969 6.94893969 6 10.4375 C4.3125 12.9375 4.3125 12.9375 2 14.4375 C-0.86211941 14.36769221 -2.42995288 13.81097914 -4.8125 12.25 C-6.59006563 9.53687351 -6.38851935 7.61040804 -6 4.4375 C-4.41772744 1.09714683 -3.69347195 0.53863133 0 0 Z " fill="#0F0F0F" transform="translate(320,48.5625)"/>
<path d="M0 0 C0.33 0 0.66 0 1 0 C1.12375 1.0725 1.2475 2.145 1.375 3.25 C2.20625725 8.23754349 2.7222944 10.01268204 6.75 13.125 C9.81001052 14.89039069 12.61375175 16.0325005 16 17 C16 17.99 16 18.98 16 20 C7.42857143 20.28571429 7.42857143 20.28571429 4 18 C3.01 20.64 2.02 23.28 1 26 C0.67 26 0.34 26 0 26 C0 17.42 0 8.84 0 0 Z " fill="#131313" transform="translate(269,43)"/>
<path d="M0 0 C2 2 2 2 2.25 5.4375 C2 9 2 9 0 12 C-3.1305429 12.39964378 -5.13083761 12.52149743 -7.875 10.875 C-9.52854531 8.11909116 -9.39365568 6.14924548 -9 3 C-6.78679539 -0.68867435 -4.02162985 -0.42783296 0 0 Z " fill="#F6F6F6" transform="translate(114,49)"/>
<path d="M0 0 C0.33 0 0.66 0 1 0 C1.05418326 2.08304538 1.09287551 4.16649768 1.125 6.25 C1.14820313 7.41015625 1.17140625 8.5703125 1.1953125 9.765625 C1.0103949 12.82786046 0.60823023 14.44202751 -1 17 C-1.103125 15.948125 -1.20625 14.89625 -1.3125 13.8125 C-2.11956742 10.78137655 -2.84868235 10.09248461 -5.58203125 8.421875 C-8.36023493 7.18077759 -11.14004638 6.03780926 -14 5 C-14 4.01 -14 3.02 -14 2 C-13.24074219 2.10699219 -12.48148437 2.21398438 -11.69921875 2.32421875 C-10.20841797 2.50404297 -10.20841797 2.50404297 -8.6875 2.6875 C-7.20830078 2.87892578 -7.20830078 2.87892578 -5.69921875 3.07421875 C-2.95964221 3.27589214 -2.95964221 3.27589214 -1.20703125 1.51953125 C-0.80871094 1.01808594 -0.41039062 0.51664063 0 0 Z " fill="#0F0F0F" transform="translate(294,46)"/>
<path d="M0 0 C4.55555556 0.55555556 4.55555556 0.55555556 6 2 C6.1875 4.4375 6.1875 4.4375 6 7 C4 9 4 9 1.5 9.25 C-1 9 -1 9 -3 7 C-2.67028521 3.70285207 -2.3773161 2.3773161 0 0 Z " fill="#EEEEEE" transform="translate(298,30)"/>
<path d="M0 0 C3.96 0 7.92 0 12 0 C10 4 10 4 9 5 C3.6360424 5.4664311 3.6360424 5.4664311 1.125 3.625 C0 2 0 2 0 0 Z " fill="#F0F0F0" transform="translate(210,58)"/>
<path d="M0 0 C2.64 0 5.28 0 8 0 C7.67 1.65 7.34 3.3 7 5 C4.125 5.625 4.125 5.625 1 6 C0.34 5.34 -0.32 4.68 -1 4 C-0.625 1.875 -0.625 1.875 0 0 Z " fill="#E6E6E6" transform="translate(135,58)"/>
<path d="M0 0 C2.00720923 0.28674418 4.0085944 0.61866701 6 1 C6.33 2.32 6.66 3.64 7 5 C3.7 5 0.4 5 -3 5 C-1 1 -1 1 0 0 Z " fill="#F4F4F4" transform="translate(213,48)"/>
</svg>
